<?xml version="1.0" encoding="us-ascii" standalone="no"?><svg xmlns="http://www.w3.org/2000/svg" xmlns:xlink="http://www.w3.org/1999/xlink" contentStyleType="text/css" height="1370px" preserveAspectRatio="none" style="width:1036px;height:1370px;background:#FFFFFF;" version="1.1" viewBox="0 0 1036 1370" width="1036px" zoomAndPan="magnify"><defs/><g><rect fill="#FFC0CB" height="46.2656" style="stroke:#000000;stroke-width:1.5;" width="483" x="20" y="139.6953"/><rect fill="#FFC0CB" height="46.2656" style="stroke:#000000;stroke-width:1.5;" width="483" x="20" y="314.4922"/><rect fill="none" height="298.5938" style="stroke:#000000;stroke-width:1.5;" width="632" x="10" y="432.0234"/><rect fill="#FFC0CB" height="46.2656" style="stroke:#000000;stroke-width:1.5;" width="483" x="20" y="544.6875"/><rect fill="#FFC0CB" height="46.2656" style="stroke:#000000;stroke-width:1.5;" width="483" x="20" y="677.3516"/><rect fill="none" height="195.0625" style="stroke:#000000;stroke-width:1.5;" width="1020" x="10" y="744.6172"/><rect fill="#FFC0CB" height="75.3984" style="stroke:#000000;stroke-width:1.5;" width="622" x="20" y="828.1484"/><rect fill="#FFC0CB" height="46.2656" style="stroke:#000000;stroke-width:1.5;" width="483" x="20" y="995.8125"/><rect fill="#FFC0CB" height="46.2656" style="stroke:#000000;stroke-width:1.5;" width="483" x="20" y="1056.0781"/><rect fill="#FFC0CB" height="46.2656" style="stroke:#000000;stroke-width:1.5;" width="483" x="20" y="1200.6094"/><line style="stroke:#181818;stroke-width:0.5;stroke-dasharray:5.0,5.0;" x1="56" x2="56" y1="36.2969" y2="1335.1406"/><line style="stroke:#181818;stroke-width:0.5;stroke-dasharray:5.0,5.0;" x1="398" x2="398" y1="36.2969" y2="1335.1406"/><line style="stroke:#181818;stroke-width:0.5;stroke-dasharray:5.0,5.0;" x1="601" x2="601" y1="36.2969" y2="1335.1406"/><rect fill="#E2E2F0" height="30.2969" rx="2.5" ry="2.5" style="stroke:#181818;stroke-width:0.5;" width="53" x="30" y="5"/><text fill="#000000" font-family="sans-serif" font-size="14" lengthAdjust="spacing" textLength="39" x="37" y="24.9951">Client</text><rect fill="#E2E2F0" height="30.2969" rx="2.5" ry="2.5" style="stroke:#181818;stroke-width:0.5;" width="53" x="30" y="1334.1406"/><text fill="#000000" font-family="sans-serif" font-size="14" lengthAdjust="spacing" textLength="39" x="37" y="1354.1357">Client</text><rect fill="#E2E2F0" height="30.2969" rx="2.5" ry="2.5" style="stroke:#181818;stroke-width:0.5;" width="189" x="304" y="5"/><text fill="#000000" font-family="sans-serif" font-size="14" lengthAdjust="spacing" textLength="175" x="311" y="24.9951">Artifact Processor Service</text><rect fill="#E2E2F0" height="30.2969" rx="2.5" ry="2.5" style="stroke:#181818;stroke-width:0.5;" width="189" x="304" y="1334.1406"/><text fill="#000000" font-family="sans-serif" font-size="14" lengthAdjust="spacing" textLength="175" x="311" y="1354.1357">Artifact Processor Service</text><rect fill="#E2E2F0" height="30.2969" rx="2.5" ry="2.5" style="stroke:#181818;stroke-width:0.5;" width="61" x="571" y="5"/><text fill="#000000" font-family="sans-serif" font-size="14" lengthAdjust="spacing" textLength="47" x="578" y="24.9951">Artifact</text><rect fill="#E2E2F0" height="30.2969" rx="2.5" ry="2.5" style="stroke:#181818;stroke-width:0.5;" width="61" x="571" y="1334.1406"/><text fill="#000000" font-family="sans-serif" font-size="14" lengthAdjust="spacing" textLength="47" x="578" y="1354.1357">Artifact</text><polygon fill="#181818" points="386.5,78.5625,396.5,82.5625,386.5,86.5625,390.5,82.5625" style="stroke:#181818;stroke-width:1.0;"/><line style="stroke:#181818;stroke-width:1.0;" x1="56.5" x2="392.5" y1="82.5625" y2="82.5625"/><text fill="#000000" font-family="sans-serif" font-size="13" lengthAdjust="spacing" textLength="112" x="63.5" y="62.3638">send request e.g.</text><text fill="#000000" font-family="sans-serif" font-size="13" lengthAdjust="spacing" textLength="318" x="63.5" y="77.4966">POST matlab-file-computation/v1/compute/mlxdiff</text><line style="stroke:#181818;stroke-width:1.0;" x1="398.5" x2="440.5" y1="111.6953" y2="111.6953"/><line style="stroke:#181818;stroke-width:1.0;" x1="440.5" x2="440.5" y1="111.6953" y2="124.6953"/><line style="stroke:#181818;stroke-width:1.0;" x1="399.5" x2="440.5" y1="124.6953" y2="124.6953"/><polygon fill="#181818" points="409.5,120.6953,399.5,124.6953,409.5,128.6953,405.5,124.6953" style="stroke:#181818;stroke-width:1.0;"/><text fill="#000000" font-family="sans-serif" font-size="13" lengthAdjust="spacing" textLength="89" x="405.5" y="106.6294">parse request</text><path d="M20,139.6953 L84,139.6953 L84,146.8281 L74,156.8281 L20,156.8281 L20,139.6953 " fill="#EEEEEE" style="stroke:#000000;stroke-width:1.5;"/><rect fill="none" height="46.2656" style="stroke:#000000;stroke-width:1.5;" width="483" x="20" y="139.6953"/><text fill="#000000" font-family="sans-serif" font-size="13" font-weight="bold" lengthAdjust="spacing" textLength="19" x="35" y="152.7622">alt</text><text fill="#000000" font-family="sans-serif" font-size="11" font-weight="bold" lengthAdjust="spacing" textLength="106" x="99" y="151.9058">[invalid request]</text><polygon fill="#181818" points="67.5,173.9609,57.5,177.9609,67.5,181.9609,63.5,177.9609" style="stroke:#181818;stroke-width:1.0;"/><line style="stroke:#181818;stroke-width:1.0;stroke-dasharray:2.0,2.0;" x1="61.5" x2="397.5" y1="177.9609" y2="177.9609"/><text fill="#000000" font-family="sans-serif" font-size="13" lengthAdjust="spacing" textLength="128" x="73.5" y="172.895">invalid request error</text><line style="stroke:#181818;stroke-width:1.0;" x1="398.5" x2="440.5" y1="214.0938" y2="214.0938"/><line style="stroke:#181818;stroke-width:1.0;" x1="440.5" x2="440.5" y1="214.0938" y2="227.0938"/><line style="stroke:#181818;stroke-width:1.0;" x1="399.5" x2="440.5" y1="227.0938" y2="227.0938"/><polygon fill="#181818" points="409.5,223.0938,399.5,227.0938,409.5,231.0938,405.5,227.0938" style="stroke:#181818;stroke-width:1.0;"/><text fill="#000000" font-family="sans-serif" font-size="13" lengthAdjust="spacing" textLength="132" x="405.5" y="209.0278">start timeLimit timer</text><line style="stroke:#181818;stroke-width:1.0;" x1="398.5" x2="440.5" y1="286.4922" y2="286.4922"/><line style="stroke:#181818;stroke-width:1.0;" x1="440.5" x2="440.5" y1="286.4922" y2="299.4922"/><line style="stroke:#181818;stroke-width:1.0;" x1="399.5" x2="440.5" y1="299.4922" y2="299.4922"/><polygon fill="#181818" points="409.5,295.4922,399.5,299.4922,409.5,303.4922,405.5,299.4922" style="stroke:#181818;stroke-width:1.0;"/><text fill="#000000" font-family="sans-serif" font-size="13" lengthAdjust="spacing" textLength="163" x="405.5" y="251.1606">check number of artifacts</text><text fill="#000000" font-family="sans-serif" font-size="13" lengthAdjust="spacing" textLength="169" x="405.5" y="266.2935">against this computation's</text><text fill="#000000" font-family="sans-serif" font-size="13" lengthAdjust="spacing" textLength="152" x="405.5" y="281.4263">expected num. artifacts</text><path d="M20,314.4922 L84,314.4922 L84,321.625 L74,331.625 L20,331.625 L20,314.4922 " fill="#EEEEEE" style="stroke:#000000;stroke-width:1.5;"/><rect fill="none" height="46.2656" style="stroke:#000000;stroke-width:1.5;" width="483" x="20" y="314.4922"/><text fill="#000000" font-family="sans-serif" font-size="13" font-weight="bold" lengthAdjust="spacing" textLength="19" x="35" y="327.5591">alt</text><text fill="#000000" font-family="sans-serif" font-size="11" font-weight="bold" lengthAdjust="spacing" textLength="160" x="99" y="326.7026">[incorrect num. artifacts]</text><polygon fill="#181818" points="67.5,348.7578,57.5,352.7578,67.5,356.7578,63.5,352.7578" style="stroke:#181818;stroke-width:1.0;"/><line style="stroke:#181818;stroke-width:1.0;stroke-dasharray:2.0,2.0;" x1="61.5" x2="397.5" y1="352.7578" y2="352.7578"/><text fill="#000000" font-family="sans-serif" font-size="13" lengthAdjust="spacing" textLength="217" x="73.5" y="347.6919">incorrect number of artifacts error</text><line style="stroke:#181818;stroke-width:1.0;" x1="398.5" x2="440.5" y1="404.0234" y2="404.0234"/><line style="stroke:#181818;stroke-width:1.0;" x1="440.5" x2="440.5" y1="404.0234" y2="417.0234"/><line style="stroke:#181818;stroke-width:1.0;" x1="399.5" x2="440.5" y1="417.0234" y2="417.0234"/><polygon fill="#181818" points="409.5,413.0234,399.5,417.0234,409.5,421.0234,405.5,417.0234" style="stroke:#181818;stroke-width:1.0;"/><text fill="#000000" font-family="sans-serif" font-size="13" lengthAdjust="spacing" textLength="112" x="405.5" y="383.8247">create temporary</text><text fill="#000000" font-family="sans-serif" font-size="13" lengthAdjust="spacing" textLength="119" x="405.5" y="398.9575">request root folder</text><path d="M10,432.0234 L80,432.0234 L80,439.1563 L70,449.1563 L10,449.1563 L10,432.0234 " fill="#EEEEEE" style="stroke:#000000;stroke-width:1.5;"/><rect fill="none" height="298.5938" style="stroke:#000000;stroke-width:1.5;" width="632" x="10" y="432.0234"/><text fill="#000000" font-family="sans-serif" font-size="13" font-weight="bold" lengthAdjust="spacing" textLength="25" x="25" y="445.0903">par</text><text fill="#000000" font-family="sans-serif" font-size="11" font-weight="bold" lengthAdjust="spacing" textLength="114" x="95" y="444.2339">[for each artifact]</text><polygon fill="#181818" points="589.5,496.5547,599.5,500.5547,589.5,504.5547,593.5,500.5547" style="stroke:#181818;stroke-width:1.0;"/><line style="stroke:#181818;stroke-width:1.0;" x1="398.5" x2="595.5" y1="500.5547" y2="500.5547"/><text fill="#000000" font-family="sans-serif" font-size="13" lengthAdjust="spacing" textLength="160" x="405.5" y="465.2231">HEAD request for artifact</text><text fill="#000000" font-family="sans-serif" font-size="13" lengthAdjust="spacing" textLength="157" x="405.5" y="480.356">CreateIfNotFound = true</text><text fill="#000000" font-family="sans-serif" font-size="13" lengthAdjust="spacing" textLength="72" x="405.5" y="495.4888">Wait = true</text><polygon fill="#181818" points="409.5,525.6875,399.5,529.6875,409.5,533.6875,405.5,529.6875" style="stroke:#181818;stroke-width:1.0;"/><line style="stroke:#181818;stroke-width:1.0;stroke-dasharray:2.0,2.0;" x1="403.5" x2="600.5" y1="529.6875" y2="529.6875"/><text fill="#000000" font-family="sans-serif" font-size="13" lengthAdjust="spacing" textLength="95" x="415.5" y="524.6216">return headers</text><path d="M20,544.6875 L84,544.6875 L84,551.8203 L74,561.8203 L20,561.8203 L20,544.6875 " fill="#EEEEEE" style="stroke:#000000;stroke-width:1.5;"/><rect fill="none" height="46.2656" style="stroke:#000000;stroke-width:1.5;" width="483" x="20" y="544.6875"/><text fill="#000000" font-family="sans-serif" font-size="13" font-weight="bold" lengthAdjust="spacing" textLength="19" x="35" y="557.7544">alt</text><text fill="#000000" font-family="sans-serif" font-size="11" font-weight="bold" lengthAdjust="spacing" textLength="123" x="99" y="556.8979">[artifact not found]</text><polygon fill="#181818" points="67.5,578.9531,57.5,582.9531,67.5,586.9531,63.5,582.9531" style="stroke:#181818;stroke-width:1.0;"/><line style="stroke:#181818;stroke-width:1.0;stroke-dasharray:2.0,2.0;" x1="61.5" x2="397.5" y1="582.9531" y2="582.9531"/><text fill="#000000" font-family="sans-serif" font-size="13" lengthAdjust="spacing" textLength="145" x="73.5" y="577.8872">artifact not found error</text><line style="stroke:#181818;stroke-width:1.0;" x1="398.5" x2="440.5" y1="649.3516" y2="649.3516"/><line style="stroke:#181818;stroke-width:1.0;" x1="440.5" x2="440.5" y1="649.3516" y2="662.3516"/><line style="stroke:#181818;stroke-width:1.0;" x1="399.5" x2="440.5" y1="662.3516" y2="662.3516"/><polygon fill="#181818" points="409.5,658.3516,399.5,662.3516,409.5,666.3516,405.5,662.3516" style="stroke:#181818;stroke-width:1.0;"/><text fill="#000000" font-family="sans-serif" font-size="13" lengthAdjust="spacing" textLength="117" x="405.5" y="614.02">check size against</text><text fill="#000000" font-family="sans-serif" font-size="13" lengthAdjust="spacing" textLength="118" x="405.5" y="629.1528">this computation's</text><text fill="#000000" font-family="sans-serif" font-size="13" lengthAdjust="spacing" textLength="103" x="405.5" y="644.2856">artifactSizeLimit</text><path d="M20,677.3516 L84,677.3516 L84,684.4844 L74,694.4844 L20,694.4844 L20,677.3516 " fill="#EEEEEE" style="stroke:#000000;stroke-width:1.5;"/><rect fill="none" height="46.2656" style="stroke:#000000;stroke-width:1.5;" width="483" x="20" y="677.3516"/><text fill="#000000" font-family="sans-serif" font-size="13" font-weight="bold" lengthAdjust="spacing" textLength="19" x="35" y="690.4185">alt</text><text fill="#000000" font-family="sans-serif" font-size="11" font-weight="bold" lengthAdjust="spacing" textLength="226" x="99" y="689.562">[size of artifact &gt; artifactSizeLimit]</text><polygon fill="#181818" points="67.5,711.6172,57.5,715.6172,67.5,719.6172,63.5,715.6172" style="stroke:#181818;stroke-width:1.0;"/><line style="stroke:#181818;stroke-width:1.0;stroke-dasharray:2.0,2.0;" x1="61.5" x2="397.5" y1="715.6172" y2="715.6172"/><text fill="#000000" font-family="sans-serif" font-size="13" lengthAdjust="spacing" textLength="140" x="73.5" y="710.5513">artifact size limit error</text><path d="M10,744.6172 L80,744.6172 L80,751.75 L70,761.75 L10,761.75 L10,744.6172 " fill="#EEEEEE" style="stroke:#000000;stroke-width:1.5;"/><rect fill="none" height="195.0625" style="stroke:#000000;stroke-width:1.5;" width="1020" x="10" y="744.6172"/><text fill="#000000" font-family="sans-serif" font-size="13" font-weight="bold" lengthAdjust="spacing" textLength="25" x="25" y="757.6841">par</text><text fill="#000000" font-family="sans-serif" font-size="11" font-weight="bold" lengthAdjust="spacing" textLength="114" x="95" y="756.8276">[for each artifact]</text><polygon fill="#181818" points="589.5,809.1484,599.5,813.1484,589.5,817.1484,593.5,813.1484" style="stroke:#181818;stroke-width:1.0;"/><line style="stroke:#181818;stroke-width:1.0;" x1="398.5" x2="595.5" y1="813.1484" y2="813.1484"/><text fill="#000000" font-family="sans-serif" font-size="13" lengthAdjust="spacing" textLength="74" x="405.5" y="777.8169">GET artifact</text><text fill="#000000" font-family="sans-serif" font-size="13" lengthAdjust="spacing" textLength="157" x="405.5" y="792.9497">CreateIfNotFound = true</text><text fill="#000000" font-family="sans-serif" font-size="13" lengthAdjust="spacing" textLength="72" x="405.5" y="808.0825">Wait = true</text><path d="M20,828.1484 L84,828.1484 L84,835.2813 L74,845.2813 L20,845.2813 L20,828.1484 " fill="#EEEEEE" style="stroke:#000000;stroke-width:1.5;"/><rect fill="none" height="75.3984" style="stroke:#000000;stroke-width:1.5;" width="622" x="20" y="828.1484"/><text fill="#000000" font-family="sans-serif" font-size="13" font-weight="bold" lengthAdjust="spacing" textLength="19" x="35" y="841.2153">alt</text><text fill="#000000" font-family="sans-serif" font-size="11" font-weight="bold" lengthAdjust="spacing" textLength="222" x="99" y="840.3589">[elapsed request time &gt; timeLimit]</text><path d="M647,833.1484 L647,888.1484 L1015,888.1484 L1015,843.1484 L1005,833.1484 L647,833.1484 " fill="#FEFFDD" style="stroke:#181818;stroke-width:0.5;"/><path d="M1005,833.1484 L1005,843.1484 L1015,843.1484 L1005,833.1484 " fill="#FEFFDD" style="stroke:#181818;stroke-width:0.5;"/><text fill="#000000" font-family="sans-serif" font-size="13" lengthAdjust="spacing" textLength="340" x="653" y="850.2153">Note: this error can occur at any point in the request.</text><text fill="#000000" font-family="sans-serif" font-size="13" lengthAdjust="spacing" textLength="347" x="653" y="865.3481">It is shown here since it may often happen here due to</text><text fill="#000000" font-family="sans-serif" font-size="13" lengthAdjust="spacing" textLength="263" x="653" y="880.481">large artifacts taking a while to download.</text><line style="stroke:#181818;stroke-width:2.0;" x1="405.5" x2="415.5" y1="861.4141" y2="871.4141"/><line style="stroke:#181818;stroke-width:2.0;" x1="405.5" x2="415.5" y1="871.4141" y2="861.4141"/><line style="stroke:#181818;stroke-width:1.0;stroke-dasharray:2.0,2.0;" x1="410.5" x2="600.5" y1="866.4141" y2="866.4141"/><text fill="#000000" font-family="sans-serif" font-size="13" lengthAdjust="spacing" textLength="124" x="415.5" y="861.3481">incomplete request</text><polygon fill="#181818" points="67.5,891.5469,57.5,895.5469,67.5,899.5469,63.5,895.5469" style="stroke:#181818;stroke-width:1.0;"/><line style="stroke:#181818;stroke-width:1.0;stroke-dasharray:2.0,2.0;" x1="61.5" x2="397.5" y1="895.5469" y2="895.5469"/><text fill="#000000" font-family="sans-serif" font-size="13" lengthAdjust="spacing" textLength="85" x="73.5" y="890.481">timeout error</text><polygon fill="#181818" points="409.5,927.6797,399.5,931.6797,409.5,935.6797,405.5,931.6797" style="stroke:#181818;stroke-width:1.0;"/><line style="stroke:#181818;stroke-width:1.0;stroke-dasharray:2.0,2.0;" x1="403.5" x2="600.5" y1="931.6797" y2="931.6797"/><text fill="#000000" font-family="sans-serif" font-size="13" lengthAdjust="spacing" textLength="109" x="415.5" y="926.6138">download artifact</text><line style="stroke:#181818;stroke-width:1.0;" x1="398.5" x2="440.5" y1="967.8125" y2="967.8125"/><line style="stroke:#181818;stroke-width:1.0;" x1="440.5" x2="440.5" y1="967.8125" y2="980.8125"/><line style="stroke:#181818;stroke-width:1.0;" x1="399.5" x2="440.5" y1="980.8125" y2="980.8125"/><polygon fill="#181818" points="409.5,976.8125,399.5,980.8125,409.5,984.8125,405.5,980.8125" style="stroke:#181818;stroke-width:1.0;"/><text fill="#000000" font-family="sans-serif" font-size="13" lengthAdjust="spacing" textLength="164" x="405.5" y="962.7466">begin processing artifacts</text><path d="M20,995.8125 L84,995.8125 L84,1002.9453 L74,1012.9453 L20,1012.9453 L20,995.8125 " fill="#EEEEEE" style="stroke:#000000;stroke-width:1.5;"/><rect fill="none" height="46.2656" style="stroke:#000000;stroke-width:1.5;" width="483" x="20" y="995.8125"/><text fill="#000000" font-family="sans-serif" font-size="13" font-weight="bold" lengthAdjust="spacing" textLength="19" x="35" y="1008.8794">alt</text><text fill="#000000" font-family="sans-serif" font-size="11" font-weight="bold" lengthAdjust="spacing" textLength="120" x="99" y="1008.0229">[unexpected error]</text><path d="M508,1000.8125 L508,1055.8125 L876,1055.8125 L876,1010.8125 L866,1000.8125 L508,1000.8125 " fill="#FEFFDD" style="stroke:#181818;stroke-width:0.5;"/><path d="M866,1000.8125 L866,1010.8125 L876,1010.8125 L866,1000.8125 " fill="#FEFFDD" style="stroke:#181818;stroke-width:0.5;"/><text fill="#000000" font-family="sans-serif" font-size="13" lengthAdjust="spacing" textLength="340" x="514" y="1017.8794">Note: this error can occur at any point in the request.</text><text fill="#000000" font-family="sans-serif" font-size="13" lengthAdjust="spacing" textLength="347" x="514" y="1033.0122">It is shown here since it may often happen here due to</text><text fill="#000000" font-family="sans-serif" font-size="13" lengthAdjust="spacing" textLength="277" x="514" y="1048.145">executables exiting with unexpected errors.</text><polygon fill="#181818" points="67.5,1030.0781,57.5,1034.0781,67.5,1038.0781,63.5,1034.0781" style="stroke:#181818;stroke-width:1.0;"/><line style="stroke:#181818;stroke-width:1.0;stroke-dasharray:2.0,2.0;" x1="61.5" x2="397.5" y1="1034.0781" y2="1034.0781"/><text fill="#000000" font-family="sans-serif" font-size="13" lengthAdjust="spacing" textLength="75" x="73.5" y="1029.0122">server error</text><path d="M20,1056.0781 L84,1056.0781 L84,1063.2109 L74,1073.2109 L20,1073.2109 L20,1056.0781 " fill="#EEEEEE" style="stroke:#000000;stroke-width:1.5;"/><rect fill="none" height="46.2656" style="stroke:#000000;stroke-width:1.5;" width="483" x="20" y="1056.0781"/><text fill="#000000" font-family="sans-serif" font-size="13" font-weight="bold" lengthAdjust="spacing" textLength="19" x="35" y="1069.145">alt</text><text fill="#000000" font-family="sans-serif" font-size="11" font-weight="bold" lengthAdjust="spacing" textLength="222" x="99" y="1068.2886">[elapsed request time &gt; timeLimit]</text><path d="M508,1061.0781 L508,1116.0781 L876,1116.0781 L876,1071.0781 L866,1061.0781 L508,1061.0781 " fill="#FEFFDD" style="stroke:#181818;stroke-width:0.5;"/><path d="M866,1061.0781 L866,1071.0781 L876,1071.0781 L866,1061.0781 " fill="#FEFFDD" style="stroke:#181818;stroke-width:0.5;"/><text fill="#000000" font-family="sans-serif" font-size="13" lengthAdjust="spacing" textLength="340" x="514" y="1078.145">Note: this error can occur at any point in the request.</text><text fill="#000000" font-family="sans-serif" font-size="13" lengthAdjust="spacing" textLength="347" x="514" y="1093.2778">It is shown here since it may often happen here due to</text><text fill="#000000" font-family="sans-serif" font-size="13" lengthAdjust="spacing" textLength="285" x="514" y="1108.4106">executables hanging or taking a while to run.</text><polygon fill="#181818" points="67.5,1090.3438,57.5,1094.3438,67.5,1098.3438,63.5,1094.3438" style="stroke:#181818;stroke-width:1.0;"/><line style="stroke:#181818;stroke-width:1.0;stroke-dasharray:2.0,2.0;" x1="61.5" x2="397.5" y1="1094.3438" y2="1094.3438"/><text fill="#000000" font-family="sans-serif" font-size="13" lengthAdjust="spacing" textLength="85" x="73.5" y="1089.2778">timeout error</text><line style="stroke:#181818;stroke-width:1.0;" x1="398.5" x2="440.5" y1="1130.4766" y2="1130.4766"/><line style="stroke:#181818;stroke-width:1.0;" x1="440.5" x2="440.5" y1="1130.4766" y2="1143.4766"/><line style="stroke:#181818;stroke-width:1.0;" x1="399.5" x2="440.5" y1="1143.4766" y2="1143.4766"/><polygon fill="#181818" points="409.5,1139.4766,399.5,1143.4766,409.5,1147.4766,405.5,1143.4766" style="stroke:#181818;stroke-width:1.0;"/><text fill="#000000" font-family="sans-serif" font-size="13" lengthAdjust="spacing" textLength="189" x="405.5" y="1125.4106">complete processing artifacts</text><line style="stroke:#181818;stroke-width:1.0;" x1="398.5" x2="440.5" y1="1172.6094" y2="1172.6094"/><line style="stroke:#181818;stroke-width:1.0;" x1="440.5" x2="440.5" y1="1172.6094" y2="1185.6094"/><line style="stroke:#181818;stroke-width:1.0;" x1="399.5" x2="440.5" y1="1185.6094" y2="1185.6094"/><polygon fill="#181818" points="409.5,1181.6094,399.5,1185.6094,409.5,1189.6094,405.5,1185.6094" style="stroke:#181818;stroke-width:1.0;"/><text fill="#000000" font-family="sans-serif" font-size="13" lengthAdjust="spacing" textLength="113" x="405.5" y="1167.5435">check results size</text><path d="M20,1200.6094 L84,1200.6094 L84,1207.7422 L74,1217.7422 L20,1217.7422 L20,1200.6094 " fill="#EEEEEE" style="stroke:#000000;stroke-width:1.5;"/><rect fill="none" height="46.2656" style="stroke:#000000;stroke-width:1.5;" width="483" x="20" y="1200.6094"/><text fill="#000000" font-family="sans-serif" font-size="13" font-weight="bold" lengthAdjust="spacing" textLength="19" x="35" y="1213.6763">alt</text><text fill="#000000" font-family="sans-serif" font-size="11" font-weight="bold" lengthAdjust="spacing" textLength="175" x="99" y="1212.8198">[size of results &gt; sizeLimit]</text><polygon fill="#181818" points="67.5,1234.875,57.5,1238.875,67.5,1242.875,63.5,1238.875" style="stroke:#181818;stroke-width:1.0;"/><line style="stroke:#181818;stroke-width:1.0;stroke-dasharray:2.0,2.0;" x1="61.5" x2="397.5" y1="1238.875" y2="1238.875"/><text fill="#000000" font-family="sans-serif" font-size="13" lengthAdjust="spacing" textLength="151" x="73.5" y="1233.8091">server results size error</text><line style="stroke:#181818;stroke-width:1.0;" x1="398.5" x2="440.5" y1="1275.0078" y2="1275.0078"/><line style="stroke:#181818;stroke-width:1.0;" x1="440.5" x2="440.5" y1="1275.0078" y2="1288.0078"/><line style="stroke:#181818;stroke-width:1.0;" x1="399.5" x2="440.5" y1="1288.0078" y2="1288.0078"/><polygon fill="#181818" points="409.5,1284.0078,399.5,1288.0078,409.5,1292.0078,405.5,1288.0078" style="stroke:#181818;stroke-width:1.0;"/><text fill="#000000" font-family="sans-serif" font-size="13" lengthAdjust="spacing" textLength="163" x="405.5" y="1269.9419">delete request root folder</text><polygon fill="#181818" points="67.5,1313.1406,57.5,1317.1406,67.5,1321.1406,63.5,1317.1406" style="stroke:#181818;stroke-width:1.0;"/><line style="stroke:#181818;stroke-width:1.0;stroke-dasharray:2.0,2.0;" x1="61.5" x2="397.5" y1="1317.1406" y2="1317.1406"/><text fill="#000000" font-family="sans-serif" font-size="13" lengthAdjust="spacing" textLength="86" x="73.5" y="1312.0747">return results</text><!--SRC=[pLPBRzim3BxxLn3TOPScmQu5Lg3eOolGTGLQO3lamiXqB4IMF8bkqltwqOfVSTm2HI_B8R4jyYE_ZmydRBGjqMDXdDfG2bUKOMNuXxCkbAWelN6Mxx4WkDChyiZQMNWahxDJk7ILr-JXdhQdKBGUII9uh9KkqJASN1fDbay00wXuUNXy8TSPAeO7xnI5u7oD_gmLHPSmRHtFiBb9aZqmpCuXm1a4iYbu-bDHOA3vUhwq3pyVdw10DhYQPThGJBcYh3YoMJn_MUnlQL6ONQgpB4b22oRX0xLeIOA6uTE3jXlGzXcDxWCb81zn4xycdRCZ6_BU-KJI6mG8B3o0TK5tkj3xApyuLpcf3TYg4FN1PHthiBIuHcq5bdCjulQCFiiPxKfIB0KLptdlT410EU_5Q6moIMHWEqvaafRoX4p0L9JEetzPsbO4xnn3vanQqnHvvTe3eSe71MrIEEyU2UBtwukhJidQfprRsiiOx3QxTtpZAgd-Ls1VqTB-Gb5qVnCnExXPawOdhho5d53I2Vl0lKITkOqf2t8qc13esB9HfRQDodIK-g86_PUWAUBIJbMnXNqKozWUemGZmg0Mq2lMkK2NyrjvHoGJxKU9nwztrEdRzTDxIpDYHGRBGFtOr2CXpBePwGWDolaxwbhtQL4QudvaNo5UWxbgJBR-bGgAjrxdV22S4A2p_QX57r1emIbLIICoe7s1qcc1rbQCkl3p0unREPQTbhjjtNAUH7Mh24I80b-aZapo7CkIckEqaWbo1n06_Pe6iySe2tmD2DjSzffOGohenc4wRrb5Hl5cUWPQXq5T3sTvHMjXLUuNT8pMxOh1FgdwdTEBEb8zo6gNxT4lZ97O7n7v0-BIZfHCtSgGnDrfhZbkDUT7dC8ywGHDtjcmRpRW_wb5ZdPTQo71Z_lCLtQeHh_RsWcSR9ZH2lGKvDz6YEjdg6YxsDhpy_ZaLJ6RlXgYJRwLKXhkXiDNqGYoUJCqaCa_]--></g></svg>