<?xml version="1.0" encoding="us-ascii" standalone="no"?><svg xmlns="http://www.w3.org/2000/svg" xmlns:xlink="http://www.w3.org/1999/xlink" contentStyleType="text/css" height="1121px" preserveAspectRatio="none" style="width:772px;height:1121px;background:#FFFFFF;" version="1.1" viewBox="0 0 772 1121" width="772px" zoomAndPan="magnify"><defs/><g><ellipse cx="395.5" cy="20" fill="#222222" rx="10" ry="10" style="stroke:#222222;stroke-width:1.0;"/><rect fill="#F1F1F1" height="33.9688" rx="12.5" ry="12.5" style="stroke:#181818;stroke-width:0.5;" width="129" x="331" y="50"/><text fill="#000000" font-family="sans-serif" font-size="12" lengthAdjust="spacing" textLength="109" x="341" y="71.1387">Request recieved</text><path d="M506,93.9688 L506,117.668 L486,121.668 L506,125.668 L506,149.3672 A0,0 0 0 0 506,149.3672 L686,149.3672 A0,0 0 0 0 686,149.3672 L686,103.9688 L676,93.9688 L506,93.9688 A0,0 0 0 0 506,93.9688 " fill="#FEFFDD" style="stroke:#181818;stroke-width:0.5;"/><path d="M676,93.9688 L676,103.9688 L686,103.9688 L676,93.9688 " fill="#FEFFDD" style="stroke:#181818;stroke-width:0.5;"/><text fill="#000000" font-family="sans-serif" font-size="13" lengthAdjust="spacing" textLength="159" x="512" y="111.0356">If at any point there is an</text><text fill="#000000" font-family="sans-serif" font-size="13" lengthAdjust="spacing" textLength="157" x="512" y="126.1685">unexpected error, return</text><text fill="#000000" font-family="sans-serif" font-size="13" lengthAdjust="spacing" textLength="116" x="512" y="141.3013">Error: Server Error</text><rect fill="#F1F1F1" height="33.9688" rx="12.5" ry="12.5" style="stroke:#181818;stroke-width:0.5;" width="181" x="305" y="104.6836"/><text fill="#000000" font-family="sans-serif" font-size="12" lengthAdjust="spacing" textLength="161" x="315" y="125.8223">Begin processing request</text><rect fill="none" height="424.687" style="stroke:#000000;stroke-width:1.5;" width="750.5" x="11" y="159.3672"/><path d="M104,159.3672 L104,168.6641 L94,178.6641 L11,178.6641 " fill="none" style="stroke:#000000;stroke-width:1.5;"/><text fill="#000000" font-family="sans-serif" font-size="14" lengthAdjust="spacing" textLength="83" x="14" y="173.3623">Check input</text><rect fill="#F1F1F1" height="33.9688" rx="12.5" ry="12.5" style="stroke:#181818;stroke-width:0.5;" width="151" x="320" y="245.6758"/><text fill="#000000" font-family="sans-serif" font-size="12" lengthAdjust="spacing" textLength="131" x="330" y="266.8145">Error: Invalid request</text><ellipse cx="395.5" cy="318.7578" fill="none" rx="11" ry="11" style="stroke:#222222;stroke-width:1.0;"/><ellipse cx="395.5" cy="318.7578" fill="#222222" rx="6" ry="6" style="stroke:#222222;stroke-width:1.0;"/><polygon fill="#F1F1F1" points="355,195.6641,436,195.6641,448,208.4688,436,221.2734,355,221.2734,343,208.4688,355,195.6641" style="stroke:#181818;stroke-width:0.5;"/><text fill="#000000" font-family="sans-serif" font-size="11" lengthAdjust="spacing" textLength="15" x="399.5" y="231.4839">No</text><text fill="#000000" font-family="sans-serif" font-size="11" lengthAdjust="spacing" textLength="73" x="355" y="205.8745">valid URI and</text><text fill="#000000" font-family="sans-serif" font-size="11" lengthAdjust="spacing" textLength="81" x="355" y="218.6792">request body?</text><text fill="#000000" font-family="sans-serif" font-size="11" lengthAdjust="spacing" textLength="21" x="448" y="205.8745">Yes</text><path d="M489,361.7578 L489,385.457 L469,389.457 L489,393.457 L489,417.1563 A0,0 0 0 0 489,417.1563 L714,417.1563 A0,0 0 0 0 714,417.1563 L714,371.7578 L704,361.7578 L489,361.7578 A0,0 0 0 0 489,361.7578 " fill="#FEFFDD" style="stroke:#181818;stroke-width:0.5;"/><path d="M704,361.7578 L704,371.7578 L714,371.7578 L704,361.7578 " fill="#FEFFDD" style="stroke:#181818;stroke-width:0.5;"/><text fill="#000000" font-family="sans-serif" font-size="13" lengthAdjust="spacing" textLength="204" x="495" y="378.8247">If the elapsed request time ever</text><text fill="#000000" font-family="sans-serif" font-size="13" lengthAdjust="spacing" textLength="176" x="495" y="393.9575">surpasses timeLimit, return</text><text fill="#000000" font-family="sans-serif" font-size="13" lengthAdjust="spacing" textLength="91" x="495" y="409.0903">Error: Timeout</text><rect fill="#F1F1F1" height="33.9688" rx="12.5" ry="12.5" style="stroke:#181818;stroke-width:0.5;" width="147" x="322" y="372.4727"/><text fill="#000000" font-family="sans-serif" font-size="12" lengthAdjust="spacing" textLength="127" x="332" y="393.6113">Timeout clock starts</text><polygon fill="#F1F1F1" points="79,437.1563,203,437.1563,215,449.9609,203,462.7656,79,462.7656,67,449.9609,79,437.1563" style="stroke:#181818;stroke-width:0.5;"/><text fill="#000000" font-family="sans-serif" font-size="11" lengthAdjust="spacing" textLength="15" x="145" y="472.9761">No</text><text fill="#000000" font-family="sans-serif" font-size="11" lengthAdjust="spacing" textLength="124" x="79" y="447.3667">correct num. artifacts</text><text fill="#000000" font-family="sans-serif" font-size="11" lengthAdjust="spacing" textLength="121" x="79" y="460.1714">for this computation?</text><rect fill="#F1F1F1" height="33.9688" rx="12.5" ry="12.5" style="stroke:#181818;stroke-width:0.5;" width="240" x="21" y="495.2808"/><text fill="#000000" font-family="sans-serif" font-size="12" lengthAdjust="spacing" textLength="220" x="31" y="516.4194">Error: Incorrect Number of Artifacts</text><ellipse cx="141" cy="561.0542" fill="none" rx="11" ry="11" style="stroke:#222222;stroke-width:1.0;"/><ellipse cx="141" cy="561.0542" fill="#222222" rx="6" ry="6" style="stroke:#222222;stroke-width:1.0;"/><polygon fill="#F1F1F1" points="327,437.9609,433,437.9609,445,449.9609,433,461.9609,327,461.9609,315,449.9609,327,437.9609" style="stroke:#181818;stroke-width:0.5;"/><text fill="#000000" font-family="sans-serif" font-size="11" lengthAdjust="spacing" textLength="15" x="384" y="472.1714">No</text><text fill="#000000" font-family="sans-serif" font-size="11" lengthAdjust="spacing" textLength="106" x="327" y="453.769">all artifacts found?</text><text fill="#000000" font-family="sans-serif" font-size="11" lengthAdjust="spacing" textLength="21" x="294" y="447.3667">Yes</text><rect fill="#F1F1F1" height="33.9688" rx="12.5" ry="12.5" style="stroke:#181818;stroke-width:0.5;" width="173" x="293.5" y="494.4761"/><text fill="#000000" font-family="sans-serif" font-size="12" lengthAdjust="spacing" textLength="153" x="303.5" y="515.6147">Error: Artifact Not Found</text><ellipse cx="380" cy="560.2495" fill="none" rx="11" ry="11" style="stroke:#222222;stroke-width:1.0;"/><ellipse cx="380" cy="560.2495" fill="#222222" rx="6" ry="6" style="stroke:#222222;stroke-width:1.0;"/><polygon fill="#F1F1F1" points="519.5,437.1563,716.5,437.1563,728.5,449.9609,716.5,462.7656,519.5,462.7656,507.5,449.9609,519.5,437.1563" style="stroke:#181818;stroke-width:0.5;"/><text fill="#000000" font-family="sans-serif" font-size="11" lengthAdjust="spacing" textLength="15" x="622" y="472.9761">No</text><text fill="#000000" font-family="sans-serif" font-size="11" lengthAdjust="spacing" textLength="197" x="519.5" y="447.3667">each artifact &lt;= artifact size limit?</text><text fill="#000000" font-family="sans-serif" font-size="11" lengthAdjust="spacing" textLength="168" x="519.5" y="460.1714">(default artifact size limit=inf)</text><text fill="#000000" font-family="sans-serif" font-size="11" lengthAdjust="spacing" textLength="21" x="486.5" y="447.3667">Yes</text><text fill="#000000" font-family="sans-serif" font-size="11" lengthAdjust="spacing" textLength="21" x="728.5" y="447.3667">Yes</text><rect fill="#F1F1F1" height="33.9688" rx="12.5" ry="12.5" style="stroke:#181818;stroke-width:0.5;" width="164" x="536" y="495.2808"/><text fill="#000000" font-family="sans-serif" font-size="12" lengthAdjust="spacing" textLength="144" x="546" y="516.4194">Error: Artifact Size Limit</text><ellipse cx="618" cy="561.0542" fill="none" rx="11" ry="11" style="stroke:#222222;stroke-width:1.0;"/><ellipse cx="618" cy="561.0542" fill="#222222" rx="6" ry="6" style="stroke:#222222;stroke-width:1.0;"/><rect fill="#F1F1F1" height="33.9688" rx="12.5" ry="12.5" style="stroke:#181818;stroke-width:0.5;" width="137" x="327" y="604.0542"/><text fill="#000000" font-family="sans-serif" font-size="12" lengthAdjust="spacing" textLength="117" x="337" y="625.1929">Download artifacts</text><rect fill="#F1F1F1" height="33.9688" rx="12.5" ry="12.5" style="stroke:#181818;stroke-width:0.5;" width="126" x="332.5" y="658.0229"/><text fill="#000000" font-family="sans-serif" font-size="12" lengthAdjust="spacing" textLength="106" x="342.5" y="679.1616">Process artifacts</text><rect fill="#F1F1F1" height="33.9688" rx="12.5" ry="12.5" style="stroke:#181818;stroke-width:0.5;" width="119" x="336" y="711.9917"/><text fill="#000000" font-family="sans-serif" font-size="12" lengthAdjust="spacing" textLength="99" x="346" y="733.1304">Results created</text><rect fill="none" height="204.3906" style="stroke:#000000;stroke-width:1.5;" width="270" x="271" y="755.9604"/><path d="M376,755.9604 L376,765.2573 L366,775.2573 L271,775.2573 " fill="none" style="stroke:#000000;stroke-width:1.5;"/><text fill="#000000" font-family="sans-serif" font-size="14" lengthAdjust="spacing" textLength="95" x="274" y="769.9556">Check results</text><rect fill="#F1F1F1" height="33.9688" rx="12.5" ry="12.5" style="stroke:#181818;stroke-width:0.5;" width="204" x="293.5" y="842.269"/><text fill="#000000" font-family="sans-serif" font-size="12" lengthAdjust="spacing" textLength="184" x="303.5" y="863.4077">Error: Client Results Size Limit</text><ellipse cx="395.5" cy="915.3511" fill="none" rx="11" ry="11" style="stroke:#222222;stroke-width:1.0;"/><ellipse cx="395.5" cy="915.3511" fill="#222222" rx="6" ry="6" style="stroke:#222222;stroke-width:1.0;"/><polygon fill="#F1F1F1" points="293,792.2573,498,792.2573,510,805.062,498,817.8667,293,817.8667,281,805.062,293,792.2573" style="stroke:#181818;stroke-width:0.5;"/><text fill="#000000" font-family="sans-serif" font-size="11" lengthAdjust="spacing" textLength="15" x="399.5" y="828.0771">No</text><text fill="#000000" font-family="sans-serif" font-size="11" lengthAdjust="spacing" textLength="174" x="293" y="802.4678">result size &lt;= client sizeLimit?</text><text fill="#000000" font-family="sans-serif" font-size="11" lengthAdjust="spacing" textLength="205" x="293" y="815.2725">(sizeLimit default=10MB, max=1GB)</text><text fill="#000000" font-family="sans-serif" font-size="11" lengthAdjust="spacing" textLength="21" x="510" y="802.4678">Yes</text><rect fill="#F1F1F1" height="33.9688" rx="12.5" ry="12.5" style="stroke:#181818;stroke-width:0.5;" width="72" x="359.5" y="980.3511"/><text fill="#000000" font-family="sans-serif" font-size="12" lengthAdjust="spacing" textLength="52" x="369.5" y="1001.4897">Success</text><rect fill="#F1F1F1" height="33.9688" rx="12.5" ry="12.5" style="stroke:#181818;stroke-width:0.5;" width="95" x="348" y="1034.3198"/><text fill="#000000" font-family="sans-serif" font-size="12" lengthAdjust="spacing" textLength="75" x="358" y="1055.4585">Return data</text><ellipse cx="395.5" cy="1099.2886" fill="none" rx="11" ry="11" style="stroke:#222222;stroke-width:1.0;"/><ellipse cx="395.5" cy="1099.2886" fill="#222222" rx="6" ry="6" style="stroke:#222222;stroke-width:1.0;"/><line style="stroke:#181818;stroke-width:1.0;" x1="395.5" x2="395.5" y1="30" y2="50"/><polygon fill="#181818" points="391.5,40,395.5,50,399.5,40,395.5,44" style="stroke:#181818;stroke-width:1.0;"/><line style="stroke:#181818;stroke-width:1.0;" x1="395.5" x2="395.5" y1="83.9688" y2="104.6836"/><polygon fill="#181818" points="391.5,94.6836,395.5,104.6836,399.5,94.6836,395.5,98.6836" style="stroke:#181818;stroke-width:1.0;"/><line style="stroke:#181818;stroke-width:1.0;" x1="395.5" x2="395.5" y1="279.6445" y2="307.7578"/><polygon fill="#181818" points="391.5,297.7578,395.5,307.7578,399.5,297.7578,395.5,301.7578" style="stroke:#181818;stroke-width:1.0;"/><line style="stroke:#181818;stroke-width:1.0;" x1="395.5" x2="395.5" y1="221.2734" y2="245.6758"/><polygon fill="#181818" points="391.5,235.6758,395.5,245.6758,399.5,235.6758,395.5,239.6758" style="stroke:#181818;stroke-width:1.0;"/><line style="stroke:#181818;stroke-width:1.0;" x1="448" x2="481" y1="208.4688" y2="208.4688"/><polygon fill="#181818" points="477,277.7578,481,287.7578,485,277.7578,481,281.7578" style="stroke:#181818;stroke-width:1.0;"/><line style="stroke:#181818;stroke-width:1.0;" x1="481" x2="481" y1="208.4688" y2="351.7578"/><line style="stroke:#181818;stroke-width:1.0;" x1="481" x2="395.5" y1="351.7578" y2="351.7578"/><line style="stroke:#181818;stroke-width:1.0;" x1="395.5" x2="395.5" y1="351.7578" y2="372.4727"/><polygon fill="#181818" points="391.5,362.4727,395.5,372.4727,399.5,362.4727,395.5,366.4727" style="stroke:#181818;stroke-width:1.0;"/><line style="stroke:#181818;stroke-width:1.0;" x1="141" x2="141" y1="529.2495" y2="550.0542"/><polygon fill="#181818" points="137,540.0542,141,550.0542,145,540.0542,141,544.0542" style="stroke:#181818;stroke-width:1.0;"/><line style="stroke:#181818;stroke-width:1.0;" x1="380" x2="380" y1="528.4448" y2="549.2495"/><polygon fill="#181818" points="376,539.2495,380,549.2495,384,539.2495,380,543.2495" style="stroke:#181818;stroke-width:1.0;"/><line style="stroke:#181818;stroke-width:1.0;" x1="618" x2="618" y1="529.2495" y2="550.0542"/><polygon fill="#181818" points="614,540.0542,618,550.0542,622,540.0542,618,544.0542" style="stroke:#181818;stroke-width:1.0;"/><line style="stroke:#181818;stroke-width:1.0;" x1="141" x2="141" y1="462.7656" y2="495.2808"/><polygon fill="#181818" points="137,485.2808,141,495.2808,145,485.2808,141,489.2808" style="stroke:#181818;stroke-width:1.0;"/><line style="stroke:#181818;stroke-width:1.0;" x1="380" x2="380" y1="461.9609" y2="494.4761"/><polygon fill="#181818" points="376,484.4761,380,494.4761,384,484.4761,380,488.4761" style="stroke:#181818;stroke-width:1.0;"/><line style="stroke:#181818;stroke-width:1.0;" x1="618" x2="618" y1="462.7656" y2="495.2808"/><polygon fill="#181818" points="614,485.2808,618,495.2808,622,485.2808,618,489.2808" style="stroke:#181818;stroke-width:1.0;"/><line style="stroke:#181818;stroke-width:1.0;" x1="215" x2="315" y1="449.9609" y2="449.9609"/><polygon fill="#181818" points="305,445.9609,315,449.9609,305,453.9609,309,449.9609" style="stroke:#181818;stroke-width:1.0;"/><line style="stroke:#181818;stroke-width:1.0;" x1="445" x2="507.5" y1="449.9609" y2="449.9609"/><polygon fill="#181818" points="497.5,445.9609,507.5,449.9609,497.5,453.9609,501.5,449.9609" style="stroke:#181818;stroke-width:1.0;"/><line style="stroke:#181818;stroke-width:1.0;" x1="395.5" x2="395.5" y1="406.4414" y2="422.1563"/><line style="stroke:#181818;stroke-width:1.0;" x1="395.5" x2="141" y1="422.1563" y2="422.1563"/><line style="stroke:#181818;stroke-width:1.0;" x1="141" x2="141" y1="422.1563" y2="437.1563"/><polygon fill="#181818" points="137,427.1563,141,437.1563,145,427.1563,141,431.1563" style="stroke:#181818;stroke-width:1.0;"/><line style="stroke:#181818;stroke-width:1.0;" x1="728.5" x2="754.5" y1="449.9609" y2="449.9609"/><line style="stroke:#181818;stroke-width:1.0;" x1="754.5" x2="754.5" y1="449.9609" y2="577.0542"/><line style="stroke:#181818;stroke-width:1.0;" x1="754.5" x2="395.5" y1="577.0542" y2="577.0542"/><line style="stroke:#181818;stroke-width:1.0;" x1="395.5" x2="395.5" y1="577.0542" y2="604.0542"/><polygon fill="#181818" points="391.5,594.0542,395.5,604.0542,399.5,594.0542,395.5,598.0542" style="stroke:#181818;stroke-width:1.0;"/><line style="stroke:#181818;stroke-width:1.0;" x1="395.5" x2="395.5" y1="138.6523" y2="195.6641"/><polygon fill="#181818" points="391.5,185.6641,395.5,195.6641,399.5,185.6641,395.5,189.6641" style="stroke:#181818;stroke-width:1.0;"/><line style="stroke:#181818;stroke-width:1.0;" x1="395.5" x2="395.5" y1="638.0229" y2="658.0229"/><polygon fill="#181818" points="391.5,648.0229,395.5,658.0229,399.5,648.0229,395.5,652.0229" style="stroke:#181818;stroke-width:1.0;"/><line style="stroke:#181818;stroke-width:1.0;" x1="395.5" x2="395.5" y1="691.9917" y2="711.9917"/><polygon fill="#181818" points="391.5,701.9917,395.5,711.9917,399.5,701.9917,395.5,705.9917" style="stroke:#181818;stroke-width:1.0;"/><line style="stroke:#181818;stroke-width:1.0;" x1="395.5" x2="395.5" y1="876.2378" y2="904.3511"/><polygon fill="#181818" points="391.5,894.3511,395.5,904.3511,399.5,894.3511,395.5,898.3511" style="stroke:#181818;stroke-width:1.0;"/><line style="stroke:#181818;stroke-width:1.0;" x1="395.5" x2="395.5" y1="817.8667" y2="842.269"/><polygon fill="#181818" points="391.5,832.269,395.5,842.269,399.5,832.269,395.5,836.269" style="stroke:#181818;stroke-width:1.0;"/><line style="stroke:#181818;stroke-width:1.0;" x1="510" x2="522" y1="805.062" y2="805.062"/><polygon fill="#181818" points="518,874.3511,522,884.3511,526,874.3511,522,878.3511" style="stroke:#181818;stroke-width:1.0;"/><line style="stroke:#181818;stroke-width:1.0;" x1="522" x2="522" y1="805.062" y2="948.3511"/><line style="stroke:#181818;stroke-width:1.0;" x1="522" x2="395.5" y1="948.3511" y2="948.3511"/><line style="stroke:#181818;stroke-width:1.0;" x1="395.5" x2="395.5" y1="948.3511" y2="980.3511"/><polygon fill="#181818" points="391.5,970.3511,395.5,980.3511,399.5,970.3511,395.5,974.3511" style="stroke:#181818;stroke-width:1.0;"/><line style="stroke:#181818;stroke-width:1.0;" x1="395.5" x2="395.5" y1="745.9604" y2="792.2573"/><polygon fill="#181818" points="391.5,782.2573,395.5,792.2573,399.5,782.2573,395.5,786.2573" style="stroke:#181818;stroke-width:1.0;"/><line style="stroke:#181818;stroke-width:1.0;" x1="395.5" x2="395.5" y1="1014.3198" y2="1034.3198"/><polygon fill="#181818" points="391.5,1024.3198,395.5,1034.3198,399.5,1024.3198,395.5,1028.3198" style="stroke:#181818;stroke-width:1.0;"/><line style="stroke:#181818;stroke-width:1.0;" x1="395.5" x2="395.5" y1="1068.2886" y2="1088.2886"/><polygon fill="#181818" points="391.5,1078.2886,395.5,1088.2886,399.5,1078.2886,395.5,1082.2886" style="stroke:#181818;stroke-width:1.0;"/><!--SRC=[XPJVRzem4CVV_LUS-WGIcjRNPAWQT9sGA9fWUvZ4Y-jSm2AnC_jCsqtxttTs4YWT0Z_5lb_V-vmTlzEcaKxMbLKxBE0UInagUhJ6-aOgB1wieOMi4URw2PqaRGsiqEbo15CRd4O72tmUGTr72E59EXBP4dy5z0GEbSOz5haGsGGtsa3Zh4BljTcmCJdbmbX2S7gp9G6yPYL80cbUeR7Q4D0M7OBsV9JimU1BWufOCZfdtOWpKN2jyKiyoQBCFSjBEu6cW5X3yEA6IQTERgPRL3jW1e5ku4-ArYKCzhBI1VnOphXUiJQTIdYonUlTC8enC5ZOOVAFA-jApamRUMYhT_1acxJ1oYCCVg9lWrcMBaNwpBxh6cqWK74Ma2ZwDiCxE1qWbi7fPEFnK128Sm3JTiVAmJNIU_J9DjUrfXDORu1r0dfX7Q-UYRAEHqbWGlq18i5IAl9hKrh7KdWqojQCCLsHAv3wL8jGywK2MyBdFjyPP8bM0XTboAewLeVI1bDShDPdXeKbU8ZkLqkWLDj33VWqFdvx_HkXYWplrcPGj8_bd7ciJJay9-kij5MCIwF9Jnmltvg_V9MpU_jiAYkB8vDSPD_Q1tPojaJFMdbA3YMbr_ZVCt2jozk7q1wrZJ48LMaqxNRUKpXieECnlltuEE4_WdmPttwT32yDPzhcwxMTut2LGROAAdQRUepN6Wf9CXSfy1y0]--></g></svg>